<svg width="420" height="420" viewBox="0 0 420 420" fill="none" xmlns="http://www.w3.org/2000/svg">
<rect x="2" y="2" width="416" height="416" rx="208" fill="#0D1116"/>
<rect x="1" y="1" width="418" height="418" rx="209" stroke="#668DFF" stroke-opacity="0.15" stroke-width="2"/>
<path d="M140.624 186H161.106L162.646 196.164C164.597 193.495 166.907 191.287 169.576 189.542C172.348 187.694 175.377 186.462 178.662 185.846C182.05 185.23 185.746 185.281 189.75 186V207.252C187.081 206.328 184.206 206.071 181.126 206.482C178.046 206.79 175.12 207.817 172.348 209.562C169.576 211.205 167.317 213.669 165.572 216.954C163.929 220.239 163.108 224.397 163.108 229.428V263H140.624V186ZM201.081 152.12H223.565V263H201.081V152.12Z" fill="#3773FF"/>
<path d="M285.858 245H243.07V261H284.247L285.858 245Z" stroke="#88ABFF" stroke-opacity="0.63" stroke-width="4"/>
</svg>
