<svg width="154" height="112" viewBox="0 0 154 112" fill="none" xmlns="http://www.w3.org/2000/svg">
<g clip-path="url(#clip0_15_30)">
<path d="M0.624 34H21.106L22.646 44.164C24.5967 41.4947 26.9067 39.2873 29.576 37.542C32.348 35.694 35.3767 34.462 38.662 33.846C42.05 33.23 45.746 33.2813 49.75 34V55.252C47.0807 54.328 44.206 54.0713 41.126 54.482C38.046 54.79 35.12 55.8167 32.348 57.562C29.576 59.2047 27.3173 61.6687 25.572 64.954C23.9293 68.2393 23.108 72.3973 23.108 77.428V111H0.624V34ZM61.081 0.119996H83.565V111H61.081V0.119996Z" fill="#3773FF"/>
<path d="M145.788 93H103V109H144.177L145.788 93Z" stroke="#88ABFF" stroke-opacity="0.63" stroke-width="4"/>
</g>
<defs>
<clipPath id="clip0_15_30">
<rect width="154" height="111.1" fill="white"/>
</clipPath>
</defs>
</svg>
