<svg width="274" height="274" viewBox="0 0 274 274" fill="none" xmlns="http://www.w3.org/2000/svg">
<rect x="2" y="2" width="270" height="270" rx="32" fill="#0D1116"/>
<rect x="1" y="1" width="272" height="272" rx="33" stroke="#668DFF" stroke-opacity="0.15" stroke-width="2"/>
<path d="M72.554 113H93.036L94.576 123.164C96.5267 120.495 98.8367 118.287 101.506 116.542C104.278 114.694 107.307 113.462 110.592 112.846C113.98 112.23 117.676 112.281 121.68 113V134.252C119.011 133.328 116.136 133.071 113.056 133.482C109.976 133.79 107.05 134.817 104.278 136.562C101.506 138.205 99.2473 140.669 97.502 143.954C95.8593 147.239 95.038 151.397 95.038 156.428V190H72.554V113ZM133.011 79.12H155.495V190H133.011V79.12Z" fill="#3773FF"/>
<path d="M217.788 172H175V188H216.177L217.788 172Z" stroke="#88ABFF" stroke-opacity="0.63" stroke-width="4"/>
</svg>
