<svg width="135" height="111" viewBox="0 0 135 111" fill="none" xmlns="http://www.w3.org/2000/svg">
<g clip-path="url(#clip0_9_94)">
<path d="M-0.277703 34H15.4303L16.8163 43.548C18.8696 40.9813 21.2823 38.8767 24.0543 37.234C26.8263 35.4887 29.8036 34.308 32.9863 33.692C36.2716 33.076 39.557 33.1787 42.8423 34V50.016C40.173 49.092 37.2983 48.8867 34.2183 49.4C31.241 49.8107 28.469 50.94 25.9023 52.788C23.3356 54.5333 21.231 57.0487 19.5883 60.334C17.9456 63.5167 17.1243 67.4693 17.1243 72.192V111H-0.277703V34ZM56.57 0.119996H73.972V111H56.57V0.119996Z" fill="#668DFF"/>
<rect x="135" y="111" width="48" height="14" transform="rotate(180 135 111)" fill="#668DFF" fill-opacity="0.19"/>
</g>
<defs>
<clipPath id="clip0_9_94">
<rect width="135" height="111" fill="white"/>
</clipPath>
</defs>
</svg>
