<svg width="416" height="416" viewBox="0 0 416 416" fill="none" xmlns="http://www.w3.org/2000/svg">
<rect width="416" height="416" fill="#0D1116"/>
<path d="M138.624 184H159.106L160.646 194.164C162.597 191.495 164.907 189.287 167.576 187.542C170.348 185.694 173.377 184.462 176.662 183.846C180.05 183.23 183.746 183.281 187.75 184V205.252C185.081 204.328 182.206 204.071 179.126 204.482C176.046 204.79 173.12 205.817 170.348 207.562C167.576 209.205 165.317 211.669 163.572 214.954C161.929 218.239 161.108 222.397 161.108 227.428V261H138.624V184ZM199.081 150.12H221.565V261H199.081V150.12Z" fill="#3773FF"/>
<path d="M283.858 243H241.07V259H282.247L283.858 243Z" stroke="#88ABFF" stroke-opacity="0.63" stroke-width="4"/>
</svg>
