<svg width="270" height="270" viewBox="0 0 270 270" fill="none" xmlns="http://www.w3.org/2000/svg">
<rect width="270" height="270" fill="#0D1116"/>
<path d="M70.554 111H91.036L92.576 121.164C94.5267 118.495 96.8367 116.287 99.506 114.542C102.278 112.694 105.307 111.462 108.592 110.846C111.98 110.23 115.676 110.281 119.68 111V132.252C117.011 131.328 114.136 131.071 111.056 131.482C107.976 131.79 105.05 132.817 102.278 134.562C99.506 136.205 97.2473 138.669 95.502 141.954C93.8593 145.239 93.038 149.397 93.038 154.428V188H70.554V111ZM131.011 77.12H153.495V188H131.011V77.12Z" fill="#3773FF"/>
<path d="M215.788 170H173V186H214.177L215.788 170Z" stroke="#88ABFF" stroke-opacity="0.63" stroke-width="4"/>
</svg>
