<svg width="270" height="270" viewBox="0 0 270 270" fill="none" xmlns="http://www.w3.org/2000/svg">
<g clip-path="url(#clip0_9_2)">
<rect width="270" height="270" fill="#0D1116"/>
<path d="M72.9223 111H88.6303L90.0163 120.548C92.0696 117.981 94.4823 115.877 97.2543 114.234C100.026 112.489 103.004 111.308 106.186 110.692C109.472 110.076 112.757 110.179 116.042 111V127.016C113.373 126.092 110.498 125.887 107.418 126.4C104.441 126.811 101.669 127.94 99.1023 129.788C96.5356 131.533 94.431 134.049 92.7883 137.334C91.1456 140.517 90.3243 144.469 90.3243 149.192V188H72.9223V111ZM129.77 77.12H147.172V188H129.77V77.12Z" fill="#668DFF"/>
<rect x="208.2" y="188" width="48" height="14" transform="rotate(180 208.2 188)" fill="#668DFF" fill-opacity="0.19"/>
</g>
<defs>
<clipPath id="clip0_9_2">
<rect width="270" height="270" fill="white"/>
</clipPath>
</defs>
</svg>
